<svg width="419" height="361" viewBox="0 0 419 361" fill="none" xmlns="http://www.w3.org/2000/svg">
<path d="M29.2337 6.59226C-4.80367 62.1057 -9.11824 130.54 16.2899 189.882C41.2187 246.353 94.9114 286.552 155.316 298.516C185.997 305.216 217.638 303.781 247.36 294.209C264.619 288.945 279.48 277.46 288.589 262.145C296.738 248.746 300.574 232.953 300.574 217.16C300.094 202.325 290.506 189.404 274.207 192.754C257.907 196.104 247.84 211.896 242.087 226.253C231.061 254.01 219.555 289.424 235.855 317.659C244.005 331.537 258.386 340.151 272.289 346.373C285.712 352.594 300.094 356.901 314.476 359.294C343.24 363.601 373.922 360.251 398.371 343.501C404.603 339.194 410.356 334.409 415.15 328.666C418.026 325.316 421.382 319.095 416.588 315.745C411.794 312.395 404.124 315.745 401.247 319.573C369.607 355.944 307.765 344.459 271.81 320.53C260.304 313.352 252.634 301.866 250.237 288.466C248.799 275.067 250.237 261.667 254.551 249.224C256.469 243.003 258.386 237.26 260.783 231.517C262.701 225.296 265.577 219.075 269.413 213.81C271.33 211.418 271.81 210.46 275.165 213.332C278.042 216.682 279.48 221.467 279.001 225.775C279.001 238.696 275.165 251.138 268.454 261.667C260.783 273.152 247.84 277.459 234.896 280.331C209.967 285.595 184.559 284.638 160.11 278.895C108.335 266.931 64.7092 232.953 40.2599 186.054C12.9341 131.976 14.8517 63.5414 46.9714 11.8565C49.3684 7.54942 49.8478 1.80654 44.095 0.370843C38.3423 -1.06485 32.5895 1.80662 29.2337 6.59226Z" fill="#E69803"/>
</svg>
